<?xml version="1.0" encoding="UTF-8"?>
<svg version="1.1" xmlns="http://www.w3.org/2000/svg" width="1254" height="1254">
<path d="M0 0 C413.82 0 827.64 0 1254 0 C1254 413.82 1254 827.64 1254 1254 C840.18 1254 426.36 1254 0 1254 C0 840.18 0 426.36 0 0 Z " fill="#FDFDFD" transform="translate(0,0)"/>
<path d="M0 0 C1.20153548 -0.00782324 2.40307096 -0.01564648 3.6410166 -0.02370679 C4.97594691 -0.01722051 6.31087586 -0.01045054 7.64580345 -0.00342751 C9.06264048 -0.00688321 10.47947483 -0.01164719 11.89630353 -0.01760924 C15.79421763 -0.03016066 19.69191206 -0.02393018 23.58982706 -0.01465058 C27.79162191 -0.00787745 31.99337835 -0.01833259 36.19516563 -0.02659035 C44.42769449 -0.03994777 52.66014141 -0.03704121 60.89267351 -0.02835242 C67.58068835 -0.0215851 74.26868018 -0.02065503 80.95669746 -0.02392387 C82.38294171 -0.02461342 82.38294171 -0.02461342 83.83799898 -0.0253169 C85.76939239 -0.02627605 87.70078579 -0.02724868 89.63217919 -0.02823468 C107.75277858 -0.03679422 125.87333249 -0.02694511 143.99392442 -0.01083358 C159.55599729 0.00257443 175.11800304 0.00023862 190.68007469 -0.01358986 C208.73767368 -0.02962828 226.7952328 -0.03597475 244.85283792 -0.02675307 C246.77662809 -0.02579738 248.70041827 -0.02485427 250.62420845 -0.02392387 C251.5708369 -0.02346105 252.51746534 -0.02299822 253.4927795 -0.02252137 C260.17694157 -0.01992658 266.86107842 -0.02431289 273.54523659 -0.03136253 C281.68483188 -0.03975827 289.82434033 -0.03753798 297.96392561 -0.0215203 C302.12009671 -0.01361216 306.27612278 -0.01058903 310.43229294 -0.02046776 C314.23187501 -0.02936267 318.03117671 -0.0245687 321.83073311 -0.0085351 C323.21017956 -0.00516511 324.58964938 -0.00693067 325.969081 -0.01416247 C327.83435699 -0.02319638 329.69969869 -0.01219771 331.56495667 0 C333.12349395 0.00073059 333.12349395 0.00073059 334.71351683 0.00147593 C335.51974655 0.1255716 336.32597627 0.24966727 337.15663719 0.37752342 C337.81663719 1.36752342 338.47663719 2.35752342 339.15663719 3.37752342 C335.23280491 7.54241025 331.11746727 11.29040075 326.65663719 14.87752342 C322.80255801 17.9797154 319.24668119 21.16642504 315.80898094 24.71736717 C313.49039766 27.04691302 311.00393193 29.15771498 308.51601219 31.30330467 C305.55799421 33.90381386 302.66969537 36.57481758 299.78163719 39.25252342 C295.14313306 43.55173818 290.46916331 47.80604237 285.75819969 52.02596092 C282.65954393 54.82684797 279.59515773 57.66333391 276.53163719 60.50252342 C272.5203501 64.21872732 268.47263307 67.87463429 264.33632469 71.45174217 C261.27762507 74.15414165 258.27989452 76.92089057 255.28163719 79.69002342 C254.70929344 80.21853905 254.13694969 80.74705467 253.54726219 81.29158592 C251.38647905 83.29211959 249.23903905 85.29512157 247.15663719 87.37752342 C244.13283557 87.56267724 241.19254407 87.63016152 238.16835594 87.61580467 C236.32915588 87.63122693 234.48996303 87.64753075 232.65077782 87.6646328 C229.74737724 87.68108057 226.8445043 87.69002432 223.94106102 87.68294334 C221.14121732 87.68032199 218.34298452 87.70845798 215.54335594 87.74080467 C214.67861153 87.73059792 213.81386711 87.72039116 212.92291832 87.70987511 C208.51604313 87.78126987 206.70716193 87.94827897 203.12343407 90.74251366 C200.91818128 93.69699397 200.37792958 95.49167586 199.96913719 99.12752342 C199.82991844 100.18842186 199.69069969 101.2493203 199.54726219 102.34236717 C199.41835594 103.34396873 199.28944969 104.3455703 199.15663719 105.37752342 C198.86669371 106.8197423 198.5560713 108.25805348 198.21913719 109.69002342 C197.28306387 113.76119945 196.42673411 117.84663051 195.59413719 121.94002342 C195.38639671 122.92422264 195.38639671 122.92422264 195.17445946 123.92830467 C194.49335818 127.24788749 194.10855048 130.31021441 194.15663719 133.69002342 C192.44110153 140.01606118 187.09505648 143.34548068 182.15663719 147.37752342 C180.859775 148.49653023 179.56748005 149.62087157 178.28163719 150.75252342 C177.64999657 151.30166405 177.01835594 151.85080467 176.36757469 152.41658592 C171.78953537 156.47696709 167.32558786 160.66387639 162.83681297 164.82234764 C150.43743372 176.29925055 150.43743372 176.29925055 145.34413719 180.69002342 C141.35022857 184.14806171 137.50980658 187.76464913 133.65663719 191.37752342 C129.22037859 195.53712376 124.76789 199.65313926 120.16054344 203.62361717 C115.41009638 207.78141587 110.80011523 212.10093748 106.15663719 216.37752342 C94.08627202 227.49418073 94.08627202 227.49418073 88.23866844 232.54158592 C86.56963311 234.01334316 84.92694027 235.51495114 83.29335594 237.02596092 C82.79521385 237.4867202 82.29707176 237.94747948 81.78383446 238.42220116 C80.34477532 239.75648238 78.91074321 241.09617922 77.47694969 242.43611717 C75.15663719 244.37752342 75.15663719 244.37752342 73.15663719 244.37752342 C73.57150365 238.05080999 74.60047519 232.05111796 75.96913719 225.87752342 C77.94265896 216.93644637 79.37695346 207.9517112 80.67348289 198.88924217 C81.64930069 192.19911481 82.93665433 185.64045368 84.39174461 179.03890038 C85.73579512 172.60521845 86.74480751 166.1164821 87.78163719 159.62752342 C88.20757344 156.9654219 88.63788557 154.30415378 89.07069969 151.64314842 C89.25584129 150.48589256 89.44098289 149.3286367 89.63173485 148.13631248 C90.15663719 145.37752342 90.15663719 145.37752342 91.15663719 143.37752342 C91.68943564 139.71509377 92.11905738 136.0443666 92.55898094 132.36971092 C93.0078997 129.01633692 93.78885826 125.80811566 94.64613914 122.53377342 C95.62913462 118.38178105 96.18506575 114.16167951 96.78163719 109.94002342 C96.91569969 109.04992577 97.04976219 108.15982811 97.18788719 107.2427578 C97.79826727 102.97943982 98.30971528 98.70561744 98.55507469 94.40486717 C98.60067528 93.69966942 98.64627586 92.99447166 98.69325829 92.26790428 C98.29345851 90.2001251 98.29345851 90.2001251 96.30866051 88.78243065 C91.63052611 86.69731129 87.2545011 86.97108105 82.18764305 87.00862694 C81.08143105 87.00486046 79.97521904 87.00109398 78.83548546 86.99721336 C76.43630317 86.99078266 74.03709541 86.99110925 71.63791275 86.99739838 C67.84308232 87.00649777 64.04874707 86.99629812 60.25394249 86.98077965 C50.83127287 86.94572191 41.4086491 86.93835728 31.98592186 86.94087791 C24.02054019 86.9427376 16.05553022 86.92892778 8.09020233 86.89239883 C4.34752049 86.88154147 0.60534252 86.89372238 -3.13732338 86.9062252 C-5.42614179 86.89732435 -7.71495605 86.88725122 -10.0037632 86.87581444 C-11.04751106 86.88555794 -12.09125893 86.89530144 -13.16663551 86.90534019 C-20.14592193 86.83552935 -20.14592193 86.83552935 -23.49878883 84.63371849 C-27.2993647 78.25635235 -24.47106843 68.86093462 -23.19883156 61.93611717 C-23.02837822 60.96956703 -22.85792488 60.00301689 -22.68230629 59.00717735 C-22.13981632 55.94164048 -21.58561037 52.87836319 -21.03086281 49.81502342 C-20.67004982 47.78847067 -20.31001791 45.76177868 -19.95078468 43.7349453 C-19.2514309 39.79101249 -18.54128325 35.84922815 -17.8252964 31.90828514 C-17.19049958 28.38947689 -16.59728565 24.86892717 -16.05283546 21.33504295 C-15.92967461 20.56177162 -15.80651375 19.78850029 -15.67962074 18.99179649 C-15.3570937 16.94888011 -15.04941766 14.90363411 -14.74302101 12.85823631 C-12.66368643 4.81344036 -8.37047845 0.00392255 0 0 Z " fill="#0D0D0D" transform="translate(451.84336280822754,388.6224765777588)"/>
<path d="M0 0 C-0.14029419 2.1462026 -0.28738164 4.29196218 -0.4375 6.4375 C-0.55931641 8.22994141 -0.55931641 8.22994141 -0.68359375 10.05859375 C-1 13 -1 13 -2 14 C-2.34165573 15.56593981 -2.62841373 17.1439136 -2.89208984 18.72485352 C-3.06251801 19.73423477 -3.23294617 20.74361603 -3.40853882 21.78358459 C-3.68197617 23.43951881 -3.68197617 23.43951881 -3.9609375 25.12890625 C-4.24778915 26.83444923 -4.24778915 26.83444923 -4.54043579 28.57444763 C-5.15575109 32.23650756 -5.76565182 35.89944285 -6.375 39.5625 C-7.17238777 44.33498737 -7.9720362 49.10709124 -8.7734375 53.87890625 C-9.06690567 55.62701851 -9.06690567 55.62701851 -9.36630249 57.41044617 C-10.57099261 64.55292019 -11.8470937 71.67404084 -13.20849609 78.78833008 C-14.24324449 84.23666737 -15.19900246 89.69913183 -16.1640625 95.16015625 C-16.56328249 97.41618393 -16.96253457 99.67220593 -17.36181641 101.92822266 C-17.67037567 103.67175018 -17.67037567 103.67175018 -17.98516846 105.45050049 C-21.56618807 125.66619826 -25.26940243 145.85087657 -29.18435669 166.00448608 C-31.98320672 180.43370816 -34.58228853 194.88778634 -37.0625 209.375 C-39.52431981 223.71719651 -42.05229159 238.04377798 -44.79122925 252.33599854 C-45.13519752 254.13512117 -45.4758655 255.93487833 -45.8130188 257.73529053 C-46.27814483 260.21228302 -46.75620224 262.68641498 -47.23828125 265.16015625 C-47.37236389 265.88498703 -47.50644653 266.60981781 -47.64459229 267.35661316 C-48.63544147 272.32306842 -50.00998922 275.99010909 -53.59614563 279.61209106 C-57.01529696 281.58620012 -60.26067164 281.42666049 -64.1015625 281.40405273 C-64.91502136 281.41091599 -65.72848022 281.41777924 -66.56658936 281.42485046 C-69.25290425 281.44313763 -71.93863627 281.4392787 -74.625 281.43359375 C-76.49300324 281.43815428 -78.3610048 281.44345947 -80.22900391 281.44947815 C-84.14297301 281.45841275 -88.05673811 281.45598175 -91.97070312 281.44604492 C-96.98806829 281.4345484 -102.00473039 281.45477532 -107.02200317 281.48396206 C-110.87903317 281.50230059 -114.7358939 281.50203641 -118.59295654 281.49632454 C-120.44294217 281.49617107 -122.29293909 281.50223646 -124.1428833 281.51461601 C-126.7285181 281.52948201 -129.31284389 281.51888247 -131.8984375 281.50170898 C-132.66323425 281.51137695 -133.42803101 281.52104492 -134.21600342 281.53100586 C-137.63191878 281.48345844 -139.65740454 281.24050765 -142.48429871 279.25598145 C-146.60914142 273.11653387 -143.61320082 263.4044612 -142.35546875 256.55859375 C-142.18501541 255.59204361 -142.01456207 254.62549347 -141.83894348 253.62965393 C-141.29645351 250.56411706 -140.74224756 247.50083977 -140.1875 244.4375 C-139.82668701 242.41094724 -139.4666551 240.38425526 -139.10742188 238.35742188 C-138.40222524 234.38589519 -137.69248797 230.41522697 -136.97827148 226.4453125 C-136.1590087 221.89084686 -135.34890366 217.33487248 -134.546875 212.77734375 C-134.30756019 211.4190224 -134.0682199 210.06070553 -133.82885742 208.70239258 C-133.70006195 207.97146393 -133.57126648 207.24053528 -133.43856812 206.48745728 C-131.87202546 197.60238836 -130.29934572 188.71841959 -128.72094727 179.83544922 C-128.28265306 177.36559558 -127.84547506 174.89554359 -127.40942383 172.42529297 C-125.21365802 159.99004653 -122.97459817 147.58911092 -120.27333069 135.25296021 C-119.11567115 129.85645168 -118.40902925 124.48863971 -117.83691406 118.99755859 C-116.04482406 103.05315207 -116.04482406 103.05315207 -109.25 97.375 C-107.21544773 95.81350018 -105.1457185 94.41466747 -103 93 C-101.70770996 91.92102463 -100.43406293 90.81899558 -99.1875 89.6875 C-98.57003906 89.15253906 -97.95257812 88.61757813 -97.31640625 88.06640625 C-93.35793135 84.53515293 -89.50666491 80.88839675 -85.63623047 77.26123047 C-81.28593817 73.18831671 -76.89163599 69.17169433 -72.44921875 65.19921875 C-69.65770517 62.69264435 -66.88892475 60.16188649 -64.125 57.625 C-63.62347412 57.16472412 -63.12194824 56.70444824 -62.60522461 56.23022461 C-61.06982421 54.82050367 -59.53483507 53.41033641 -58 52 C-46.72339154 41.63809743 -46.72339154 41.63809743 -41.0625 36.5625 C-34.40769982 30.58806278 -27.8571983 24.50060445 -21.29736328 18.42236328 C-1.41263566 0 -1.41263566 0 0 0 Z " fill="#0D0D0D" transform="translate(696,503)"/>
<path d="M0 0 C-1.31869605 4.20221866 -2.90583943 8.09380011 -4.8359375 12.05078125 C-5.39925781 13.2109375 -5.96257812 14.37109375 -6.54296875 15.56640625 C-7.15363029 16.81511177 -7.76430778 18.06380949 -8.375 19.3125 C-9.00953389 20.61698362 -9.64364243 21.92167422 -10.27734375 23.2265625 C-11.24640054 25.22180388 -12.21574164 27.21690179 -13.1864624 29.21133423 C-16.14802481 35.29622192 -19.07730832 41.39635301 -22 47.5 C-26.85641737 57.6286128 -31.72847138 67.74964953 -36.62207031 77.86035156 C-39.41089946 83.6242807 -42.1911365 89.39187255 -44.94180298 95.1741333 C-46.23045128 97.88200254 -47.52353667 100.5877418 -48.81695557 103.29333496 C-49.43584107 104.59118487 -50.05252418 105.89008743 -50.66693115 107.19006348 C-51.51721914 108.98870704 -52.3755962 110.78351995 -53.234375 112.578125 C-53.72131836 113.60325195 -54.20826172 114.62837891 -54.70996094 115.68457031 C-56 118 -56 118 -58 119 C-58.0957822 112.59323479 -58.07238835 106.25995177 -57.5 99.875 C-56.92070587 92.50369204 -56.85115687 85.14215967 -56.8125 77.75 C-56.79960938 76.53425293 -56.78671875 75.31850586 -56.7734375 74.06591797 C-56.77214844 72.92525879 -56.77085937 71.78459961 -56.76953125 70.609375 C-56.76542236 69.57780273 -56.76131348 68.54623047 -56.75708008 67.48339844 C-56.75182444 64.82490284 -56.75182444 64.82490284 -59 63 C-63.21626518 61.84760572 -67.57059871 61.64138518 -71.9140625 61.31640625 C-72.67796799 61.25656555 -73.44187347 61.19672485 -74.22892761 61.1350708 C-75.85586646 61.00763762 -77.48289912 60.88139732 -79.11001587 60.7562561 C-92.76291604 59.7044273 -106.39653829 58.58179787 -120 57 C-120 56.34 -120 55.68 -120 55 C-119.28271729 54.6690332 -118.56543457 54.33806641 -117.82641602 53.99707031 C-103.52783142 47.39370331 -89.2598276 40.74075995 -75.08618164 33.87207031 C-70.09944779 31.46068224 -65.09218805 29.18155892 -60 27 C-56.15311589 25.19480308 -52.32682779 23.34726514 -48.5 21.5 C-37.27969849 16.08379812 -37.27969849 16.08379812 -33.04296875 14.29296875 C-29.88336451 12.95044115 -26.90671378 11.40752053 -23.89453125 9.76953125 C-22 9 -22 9 -18 9 C-18 8.34 -18 7.68 -18 7 C-15.37690901 5.82887054 -12.75171858 4.66294036 -10.125 3.5 C-9.37863281 3.16613281 -8.63226562 2.83226562 -7.86328125 2.48828125 C-7.14785156 2.17246094 -6.43242188 1.85664063 -5.6953125 1.53125 C-4.7055542 1.09135742 -4.7055542 1.09135742 -3.69580078 0.64257812 C-2 0 -2 0 0 0 Z " fill="#101010" transform="translate(874,307)"/>
<path d="M0 0 C0.94230469 -0.02900391 1.88460938 -0.05800781 2.85546875 -0.08789062 C8.81579184 -0.14222737 12.22229326 0.32486286 16.75 4.3125 C20.22748306 11.26746612 17.54164116 21.85333411 16.125 29.1875 C15.98489502 29.98341553 15.84479004 30.77933105 15.70043945 31.59936523 C14.4881387 37.37064238 12.23709625 41.41791149 7.75 45.3125 C3.28631507 48.05608614 -1.09403385 47.64328236 -6.1875 47.625 C-7.08146484 47.64111328 -7.97542969 47.65722656 -8.89648438 47.67382812 C-13.84345199 47.67750071 -17.25540835 47.54910462 -21.25 44.3125 C-21.84296875 43.88066406 -22.4359375 43.44882812 -23.046875 43.00390625 C-24.86010386 40.45478906 -24.5748768 38.33118029 -24.5 35.25 C-24.48453125 34.18652344 -24.4690625 33.12304688 -24.453125 32.02734375 C-24.25 29.3125 -24.25 29.3125 -23.25 27.3125 C-22.93246536 25.08687083 -22.64538331 22.85684819 -22.375 20.625 C-20.61074658 8.12181274 -20.61074658 8.12181274 -15.1875 3.4375 C-10.05245759 -0.27721153 -6.19469831 0.0625306 0 0 Z " fill="#141414" transform="translate(353.25,857.6875)"/>
<path d="M0 0 C0.97646484 -0.02835938 1.95292969 -0.05671875 2.95898438 -0.0859375 C7.58604666 -0.09848547 11.00172232 -0.08865907 14.69140625 2.90625 C17.74851057 6.25043001 18.27151293 7.84082038 18.20068359 12.32861328 C17.91945097 16.74784107 17.14273273 21.08113155 16.375 25.4375 C16.22611328 26.38818359 16.07722656 27.33886719 15.92382812 28.31835938 C14.61726443 35.75296298 12.63306946 41.87014826 6.37890625 46.4765625 C1.8563318 47.87222152 -2.29377714 47.93696928 -7 47.875 C-7.88494141 47.88660156 -8.76988281 47.89820313 -9.68164062 47.91015625 C-14.55448749 47.88822296 -18.0336604 47.74178493 -21.9375 44.5 C-26.78720758 37.22543862 -23.84206363 25.75049781 -22.35229492 17.47949219 C-21.01209934 10.90130903 -19.1009744 6.15806725 -13.95703125 1.8359375 C-9.36430484 -0.19603201 -4.96705818 -0.01306261 0 0 Z " fill="#101010" transform="translate(827.9375,857.5)"/>
<path d="M0 0 C1.31734226 2.63468453 0.81945532 3.92133229 0.29296875 6.8046875 C0.03290039 8.25959595 0.03290039 8.25959595 -0.23242188 9.74389648 C-0.42384766 10.77716064 -0.61527344 11.8104248 -0.8125 12.875 C-1.19445261 14.98820137 -1.57596808 17.10148181 -1.95703125 19.21484375 C-2.14088379 20.22530762 -2.32473633 21.23577148 -2.51416016 22.27685547 C-3.05774187 25.32364465 -3.53612826 28.37764879 -4 31.4375 C-4.80045548 36.12982521 -5.71914181 40.79078098 -6.75 45.4375 C-6.88277344 46.11288818 -7.01554688 46.78827637 -7.15234375 47.48413086 C-8.13684323 51.68350499 -9.6454648 54.30513244 -13.04211426 56.97898865 C-17.05061777 59.06936987 -21.4527519 58.6025334 -25.8671875 58.48828125 C-27.41927414 58.47766914 -27.41927414 58.47766914 -29.00271606 58.46684265 C-32.29422554 58.43894587 -35.58400826 58.37621368 -38.875 58.3125 C-41.11195453 58.28741115 -43.34893583 58.26459901 -45.5859375 58.24414062 C-51.05787672 58.18913494 -56.52881498 58.10555572 -62 58 C-62 56 -62 56 -60.77734375 54.765625 C-60.17019531 54.26546875 -59.56304688 53.7653125 -58.9375 53.25 C-54.6666215 49.6262243 -50.57957657 45.83536593 -46.5 42 C-42.06436546 37.83976653 -37.61121961 33.72435556 -33.00390625 29.75390625 C-30.38234496 27.45940134 -27.81544384 25.10675187 -25.25 22.75 C-24.74291504 22.28416504 -24.23583008 21.81833008 -23.71337891 21.33837891 C-21.60821717 19.40263603 -19.5046455 17.46517429 -17.40185547 15.52685547 C-11.68088685 10.25472778 -5.95585166 5.0083298 0 0 Z " fill="#0D0D0D" transform="translate(789,417)"/>
<path d="M0 0 C4.37477474 -0.11651725 8.74914827 -0.18736 13.125 -0.25 C14.3625 -0.28351562 15.6 -0.31703125 16.875 -0.3515625 C28.34281801 -0.47487237 28.34281801 -0.47487237 33 4 C35.12889289 8.25778579 34.48909901 13.24127092 33.24609375 17.7109375 C31.53529689 22.28648047 30.34333358 25.43047059 26 28 C25.01 28 24.02 28 23 28 C23.62396703 29.72953968 24.24922128 31.458615 24.875 33.1875 C25.22304688 34.15042969 25.57109375 35.11335937 25.9296875 36.10546875 C26.62219034 37.97825928 27.35437137 39.83704963 28.1328125 41.67578125 C29 44 29 44 29 47 C26.03 47 23.06 47 20 47 C14.44419134 35.47835991 14.44419134 35.47835991 14 30 C10.37 30 6.74 30 3 30 C2.87625 31.505625 2.7525 33.01125 2.625 34.5625 C2.1955696 38.93771115 1.36053236 42.82770075 0 47 C-2.64 47 -5.28 47 -8 47 C-6.97240103 36.26389132 -5.33155036 25.68002454 -3.4375 15.0625 C-3.21553955 13.81178711 -2.9935791 12.56107422 -2.76489258 11.27246094 C-1.13059126 2.26118252 -1.13059126 2.26118252 0 0 Z " fill="#161616" transform="translate(459,858)"/>
<path d="M0 0 C1.81242052 -0.02687279 3.62495233 -0.04633715 5.4375 -0.0625 C6.44683594 -0.07410156 7.45617187 -0.08570313 8.49609375 -0.09765625 C11 0 11 0 12 1 C12.5053611 3.70813424 12.95717604 6.40690706 13.375 9.12890625 C13.50438965 9.95196762 13.6337793 10.77502899 13.76708984 11.62303162 C14.04130046 13.3721683 14.31353916 15.12161506 14.58398438 16.87133789 C14.99459171 19.52751431 15.41078151 22.18276516 15.828125 24.83789062 C16.09408196 26.53901063 16.35971685 28.24018103 16.625 29.94140625 C16.74794434 30.72818253 16.87088867 31.5149588 16.99755859 32.32557678 C17.75115488 37.20858838 18.40849835 42.09465173 19 47 C17.52093108 47.02689216 16.04172517 47.04634621 14.5625 47.0625 C13.73878906 47.07410156 12.91507813 47.08570313 12.06640625 47.09765625 C10 47 10 47 9 46 C8.85742811 42.66381769 8.95771843 39.34024394 9 36 C2.73 36 -3.54 36 -10 36 C-10.99 38.475 -10.99 38.475 -12 41 C-12.98482022 43.00751815 -13.98152514 45.00934459 -15 47 C-17.97 47 -20.94 47 -24 47 C-22.20044968 42.19152415 -19.9196399 37.64819862 -17.625 33.0625 C-17.19525879 32.20237305 -16.76551758 31.34224609 -16.32275391 30.45605469 C-11.13736878 20.16662381 -5.58248902 10.07796827 0 0 Z " fill="#121212" transform="translate(646,858)"/>
<path d="M0 0 C1.29349365 0.00523682 2.5869873 0.01047363 3.91967773 0.01586914 C4.9496714 0.01799156 4.9496714 0.01799156 6.00047302 0.02015686 C8.20144949 0.0257706 10.40232557 0.03832532 12.60327148 0.05102539 C14.09220231 0.05603863 15.58113473 0.06060184 17.07006836 0.06469727 C20.72700223 0.07574446 24.38387707 0.09301826 28.04077148 0.11352539 C27.16577148 6.98852539 27.16577148 6.98852539 26.04077148 8.11352539 C24.40604267 8.20052881 22.76763093 8.22053602 21.13061523 8.21118164 C20.14125977 8.20795898 19.1519043 8.20473633 18.13256836 8.20141602 C17.09165039 8.19303711 16.05073242 8.1846582 14.97827148 8.17602539 C13.93348633 8.17151367 12.88870117 8.16700195 11.81225586 8.16235352 C9.22173694 8.15052466 6.63124726 8.13258858 4.04077148 8.11352539 C3.71077148 11.41352539 3.38077148 14.71352539 3.04077148 18.11352539 C8.98077148 18.44352539 14.92077148 18.77352539 21.04077148 19.11352539 C21.04077148 21.42352539 21.04077148 23.73352539 21.04077148 26.11352539 C20.04077148 27.11352539 20.04077148 27.11352539 18.09130859 27.22705078 C17.25865479 27.22181396 16.42600098 27.21657715 15.56811523 27.21118164 C14.66899414 27.20795898 13.76987305 27.20473633 12.84350586 27.20141602 C11.89797852 27.19303711 10.95245117 27.1846582 9.97827148 27.17602539 C9.02887695 27.17151367 8.07948242 27.16700195 7.10131836 27.16235352 C4.74777617 27.15052667 2.39426617 27.1325906 0.04077148 27.11352539 C-0.28922852 31.07352539 -0.61922852 35.03352539 -0.95922852 39.11352539 C6.30077148 39.11352539 13.56077148 39.11352539 21.04077148 39.11352539 C20.04077148 46.11352539 20.04077148 46.11352539 19.04077148 47.11352539 C16.74925731 47.20143514 14.45504624 47.22046577 12.16186523 47.21118164 C11.13187157 47.20905922 11.13187157 47.20905922 10.08106995 47.20689392 C7.88009347 47.20128018 5.6792174 47.18872546 3.47827148 47.17602539 C1.98934066 47.17101216 0.50040824 47.16644894 -0.98852539 47.16235352 C-4.64545926 47.15130632 -8.3023341 47.13403252 -11.95922852 47.11352539 C-10.67587198 37.49737568 -9.09953213 27.97117933 -7.29980469 18.44042969 C-6.88877853 16.25882929 -6.48534703 14.07590483 -6.08227539 11.89282227 C-5.8216556 10.50146225 -5.56060508 9.11018283 -5.29907227 7.71899414 C-5.06567139 6.4727124 -4.83227051 5.22643066 -4.59179688 3.94238281 C-3.74233371 0.14356779 -3.74233371 0.14356779 0 0 Z " fill="#1B1B1B" transform="translate(757.959228515625,857.886474609375)"/>
<path d="M0 0 C2.97 0 5.94 0 9 0 C8.69127671 2.60466543 8.37818277 5.20867691 8.0625 7.8125 C7.93198242 8.91948242 7.93198242 8.91948242 7.79882812 10.04882812 C7.41783454 13.16733121 6.99630626 16.01108122 6 19 C11.54024684 17.56481225 14.51603119 13.60498603 18.1875 9.5 C19.43095634 8.13538637 20.6744445 6.77080174 21.91796875 5.40625 C22.46219482 4.80103516 23.0064209 4.19582031 23.56713867 3.57226562 C26.80677822 0.01743879 26.80677822 0.01743879 29.1640625 -0.1953125 C30.38222656 -0.16050781 30.38222656 -0.16050781 31.625 -0.125 C32.85089844 -0.09792969 32.85089844 -0.09792969 34.1015625 -0.0703125 C35.04128906 -0.03550781 35.04128906 -0.03550781 36 0 C34.60241693 3.16937042 32.95663509 5.26325541 30.48828125 7.6796875 C29.81345703 8.36160156 29.13863281 9.04351563 28.44335938 9.74609375 C27.02079441 11.1673548 25.58840783 12.57885154 24.14648438 13.98046875 C20.13819156 17.86175036 20.13819156 17.86175036 18.79296875 23.0390625 C20.28356705 26.69561109 22.02609242 30.08362149 24 33.5 C26.61430867 38.024765 28.47532781 41.68769404 29 47 C26.03 47 23.06 47 20 47 C18.68253667 44.41909233 17.37090383 41.83549542 16.0625 39.25 C15.68931641 38.52039063 15.31613281 37.79078125 14.93164062 37.0390625 C14.39506836 35.97558594 14.39506836 35.97558594 13.84765625 34.890625 C13.51773682 34.24125977 13.18781738 33.59189453 12.84790039 32.92285156 C11.98547884 30.96706921 11.45625821 29.08459306 11 27 C8.69 27 6.38 27 4 27 C3.87882813 28.10859375 3.75765625 29.2171875 3.6328125 30.359375 C3.46393704 31.82296234 3.29464428 33.28650157 3.125 34.75 C3.00705078 35.84441406 3.00705078 35.84441406 2.88671875 36.9609375 C2.44863824 40.66777257 2.0013785 43.80452172 0 47 C-2.64 47 -5.28 47 -8 47 C-7.85915204 45.20793453 -7.71216299 43.41635083 -7.5625 41.625 C-7.48128906 40.62726562 -7.40007813 39.62953125 -7.31640625 38.6015625 C-7 36 -7 36 -6 34 C-5.50930448 31.10607881 -5.05477269 28.21550883 -4.625 25.3125 C-3.33079161 16.81545866 -1.77252563 8.41006841 0 0 Z " fill="#151516" transform="translate(695,858)"/>
<path d="M0 0 C1.29349365 0.00523682 2.5869873 0.01047363 3.91967773 0.01586914 C4.9496714 0.01799156 4.9496714 0.01799156 6.00047302 0.02015686 C8.20144949 0.0257706 10.40232557 0.03832532 12.60327148 0.05102539 C14.09220231 0.05603863 15.58113473 0.06060184 17.07006836 0.06469727 C20.72700223 0.07574446 24.38387707 0.09301826 28.04077148 0.11352539 C28.16577148 2.98852539 28.16577148 2.98852539 28.04077148 6.11352539 C26.04077148 8.11352539 26.04077148 8.11352539 23.79418945 8.34057617 C22.8829834 8.33010254 21.97177734 8.31962891 21.03295898 8.30883789 C20.04682617 8.30239258 19.06069336 8.29594727 18.04467773 8.28930664 C16.49586914 8.26416992 16.49586914 8.26416992 14.91577148 8.23852539 C13.87549805 8.22950195 12.83522461 8.22047852 11.76342773 8.21118164 C9.18898056 8.18756286 6.61498936 8.15462688 4.04077148 8.11352539 C4.06139648 9.16540039 4.08202148 10.21727539 4.10327148 11.30102539 C4.04077148 15.11352539 4.04077148 15.11352539 3.04077148 20.11352539 C9.31077148 20.11352539 15.58077148 20.11352539 22.04077148 20.11352539 C21.04077148 27.11352539 21.04077148 27.11352539 20.04077148 28.11352539 C18.55205289 28.20021971 17.05932649 28.22056033 15.56811523 28.21118164 C14.66899414 28.20795898 13.76987305 28.20473633 12.84350586 28.20141602 C11.89797852 28.19303711 10.95245117 28.1846582 9.97827148 28.17602539 C9.02887695 28.17151367 8.07948242 28.16700195 7.10131836 28.16235352 C4.74774083 28.15052649 2.39428671 28.13404564 0.04077148 28.11352539 C-0.17385742 29.90790039 -0.17385742 29.90790039 -0.39282227 31.73852539 C-0.8281205 35.2209113 -1.37480467 38.66326488 -2.02172852 42.11352539 C-2.19833008 43.06227539 -2.37493164 44.01102539 -2.55688477 44.98852539 C-2.6896582 45.68977539 -2.82243164 46.39102539 -2.95922852 47.11352539 C-5.59922852 47.11352539 -8.23922852 47.11352539 -10.95922852 47.11352539 C-10.57809661 39.20175278 -9.5656641 31.74622386 -7.78735352 24.03149414 C-6.55772332 18.48795993 -5.7805377 12.86201617 -4.96166992 7.24584961 C-3.90199668 0.14969297 -3.90199668 0.14969297 0 0 Z " fill="#1A1A1A" transform="translate(931.959228515625,857.886474609375)"/>
<path d="M0 0 C9.9 0 19.8 0 30 0 C30 2.31 30 4.62 30 7 C29 8 29 8 26.77514648 8.11352539 C25.81680908 8.10828857 24.85847168 8.10305176 23.87109375 8.09765625 C22.31938477 8.09282227 22.31938477 8.09282227 20.73632812 8.08789062 C19.64771484 8.07951172 18.55910156 8.07113281 17.4375 8.0625 C15.7987793 8.05573242 15.7987793 8.05573242 14.12695312 8.04882812 C11.41794568 8.0369984 8.7089662 8.01906231 6 8 C5.67 11.96 5.34 15.92 5 20 C11.27 20 17.54 20 24 20 C24 26 24 26 23 28 C16.4 28 9.8 28 3 28 C2.42369207 32.75538035 2.42369207 32.75538035 1.86376953 37.51269531 C1.41489996 41.04101893 0.87059979 43.95045077 -1 47 C-3.64 47 -6.28 47 -9 47 C-7.63607042 36.52274032 -6.26631728 26.04329835 -4.5 15.625 C-4.2834375 14.33851563 -4.066875 13.05203125 -3.84375 11.7265625 C-3 8 -3 8 0 0 Z " fill="#181818" transform="translate(874,858)"/>
<path d="M0 0 C2.97 0 5.94 0 9 0 C11.66666667 6.66666667 14.33333333 13.33333333 17 20 C17.50789062 19.2265625 18.01578125 18.453125 18.5390625 17.65625 C19.9659168 15.49726447 21.4053519 13.34655515 22.85546875 11.203125 C24.12787514 9.30262729 25.37188592 7.38175136 26.55078125 5.421875 C27.91434173 3.28627042 29.04162366 1.6111465 31 0 C34.11374686 -0.63608667 36.87460268 -0.50006357 40 0 C38.60516537 2.93692937 37.00837373 5.58426525 35.171875 8.265625 C34.61886719 9.07386719 34.06585937 9.88210938 33.49609375 10.71484375 C32.63177734 11.96974609 32.63177734 11.96974609 31.75 13.25 C30.90888672 14.48169922 30.90888672 14.48169922 30.05078125 15.73828125 C27.36838492 19.6472699 24.65145477 23.4348957 21.66015625 27.11328125 C18.65924349 31.07250202 18.09680334 34.00120307 17.6875 38.9375 C17.04446855 45.95553145 17.04446855 45.95553145 16 47 C13.32941149 47.14115161 10.67567762 47.04247107 8 47 C7.875 39.375 7.875 39.375 9 36 C9.64958238 28.0426159 6.9374993 21.17345338 3.9375 13.9375 C2.03866153 9.34682155 0.94323997 4.87340649 0 0 Z " fill="#161616" transform="translate(518,858)"/>
<path d="M0 0 C1.12664063 0.00128906 2.25328125 0.00257813 3.4140625 0.00390625 C6.375 0.4375 6.375 0.4375 8.2734375 1.52734375 C11.27796133 6.73731593 8.89469576 13.98442305 7.6875 19.5625 C7.53861328 20.34753906 7.38972656 21.13257813 7.23632812 21.94140625 C6.13209207 27.07718648 4.82686115 30.26029021 0.375 33.4375 C-2.8515625 34.03125 -2.8515625 34.03125 -6.25 33.9375 C-7.37664063 33.9271875 -8.50328125 33.916875 -9.6640625 33.90625 C-12.625 33.4375 -12.625 33.4375 -14.53125 32.16796875 C-16.77683531 28.61513199 -15.25778609 24.3851117 -14.625 20.4375 C-14.53444336 19.78861816 -14.44388672 19.13973633 -14.35058594 18.47119141 C-14.05007985 16.33045747 -13.71658407 14.19703708 -13.375 12.0625 C-13.27815918 11.37260986 -13.18131836 10.68271973 -13.08154297 9.97192383 C-12.48553349 6.54633631 -11.76461032 4.59325742 -9.4296875 1.98828125 C-6.04590158 0.11730213 -3.84950582 -0.06637079 0 0 Z " fill="#F5F5F5" transform="translate(827.625,864.5625)"/>
<path d="M0 0 C12.21 0 24.42 0 37 0 C36 7 36 7 35 8 C32.64686445 8.07271741 30.29166332 8.08370868 27.9375 8.0625 C26.64714844 8.05347656 25.35679687 8.04445313 24.02734375 8.03515625 C23.02832031 8.02355469 22.02929688 8.01195312 21 8 C21.020625 9.27875 21.04125 10.5575 21.0625 11.875 C21.125 15.75 21.125 15.75 20 18 C19.67744916 20.26665269 19.39196309 22.53863013 19.125 24.8125 C16.70171283 44.29828717 16.70171283 44.29828717 14 47 C11.32941149 47.14115161 8.67567762 47.04247107 6 47 C7.44529949 33.8972191 9.66448057 20.97006906 12 8 C7.71 8 3.42 8 -1 8 C-1 2 -1 2 0 0 Z " fill="#181818" transform="translate(397,858)"/>
<path d="M0 0 C2.37946437 2.37946437 2.29598679 2.87740108 2.3125 6.125 C2.20669062 10.94990774 1.56287284 15.6272185 0.75 20.375 C0.64083252 21.06480957 0.53166504 21.75461914 0.41918945 22.46533203 C-0.15271373 25.53073309 -0.90059135 27.85064921 -2.6328125 30.453125 C-5.90723221 32.59284481 -8.84906867 32.51243811 -12.625 32.375 C-13.6459375 32.37306641 -13.6459375 32.37306641 -14.6875 32.37109375 C-19.71838846 32.28161154 -19.71838846 32.28161154 -22 30 C-22.07657954 25.30950325 -21.50378688 20.6600286 -21 16 C-20.8865625 14.94554687 -20.773125 13.89109375 -20.65625 12.8046875 C-20.06705075 8.64630052 -19.28039837 5.5107256 -17.25 1.8125 C-11.90329882 -1.16931412 -5.98549844 -0.72068739 0 0 Z " fill="#F6F6F6" transform="translate(360,865)"/>
<path d="M0 0 C11.88 0 23.76 0 36 0 C36 2.31 36 4.62 36 7 C35 8 35 8 31.83984375 8.09765625 C29.90818359 8.08025391 29.90818359 8.08025391 27.9375 8.0625 C26.64714844 8.05347656 25.35679687 8.04445313 24.02734375 8.03515625 C23.02832031 8.02355469 22.02929688 8.01195312 21 8 C20.90203125 8.7321875 20.8040625 9.464375 20.703125 10.21875 C19.56824939 18.43681474 18.28006208 26.6260274 16.9375 34.8125 C16.7631543 35.89273438 16.58880859 36.97296875 16.40917969 38.0859375 C16.24192383 39.09527344 16.07466797 40.10460937 15.90234375 41.14453125 C15.75273193 42.05565674 15.60312012 42.96678223 15.44897461 43.90551758 C15 46 15 46 14 47 C11.32941149 47.14115161 8.67567762 47.04247107 6 47 C5.86274947 41.94746483 6.33561789 37.25752426 7.3125 32.31640625 C7.44567627 31.61603745 7.57885254 30.91566864 7.71606445 30.19407654 C8.13804312 27.98235026 8.56885954 25.77245657 9 23.5625 C9.28965116 22.0528472 9.57871928 20.54308241 9.8671875 19.03320312 C10.5713943 15.3541403 11.28352606 11.67669271 12 8 C7.71 8 3.42 8 -1 8 C-0.67 5.36 -0.34 2.72 0 0 Z " fill="#161616" transform="translate(578,858)"/>
<path d="M0 0 C1.51815699 0.00015911 3.0363194 0.00585313 4.55444336 0.01586914 C5.35208603 0.01728409 6.1497287 0.01869904 6.97154236 0.02015686 C9.52916146 0.02577223 12.08669429 0.03832727 14.64428711 0.05102539 C16.37410356 0.05603841 18.10392137 0.06060166 19.83374023 0.06469727 C24.08312264 0.07574664 28.33244023 0.09302153 32.58178711 0.11352539 C32.25178711 2.42352539 31.92178711 4.73352539 31.58178711 7.11352539 C26.96178711 7.44352539 22.34178711 7.77352539 17.58178711 8.11352539 C15.27178711 20.98352539 12.96178711 33.85352539 10.58178711 47.11352539 C7.61178711 47.11352539 4.64178711 47.11352539 1.58178711 47.11352539 C2.25769085 39.0026805 3.57257444 31.10804051 5.08178711 23.11352539 C5.30737305 21.88762695 5.53295898 20.66172852 5.76538086 19.39868164 C7.45011824 10.37686313 7.45011824 10.37686313 8.58178711 8.11352539 C3.96178711 8.11352539 -0.65821289 8.11352539 -5.41821289 8.11352539 C-4.40419881 0.14627187 -4.40419881 0.14627187 0 0 Z " fill="#141414" transform="translate(279.418212890625,857.886474609375)"/>
<path d="M0 0 C1.15564325 3.15378771 1.62564136 5.67501889 1 9 C-1.48145985 11.69122354 -4.15949616 13.69557649 -7.1171875 15.84765625 C-10.72326367 18.53999767 -13.2286258 21.47960575 -16 25 C-15.47019531 25.21398437 -14.94039062 25.42796875 -14.39453125 25.6484375 C-11.06798604 27.52606335 -8.42945299 30.0033937 -5.6875 32.625 C-5.12482422 33.12128906 -4.56214844 33.61757813 -3.98242188 34.12890625 C-0.06589427 37.89682632 -0.06589427 37.89682632 0.13037109 41.18261719 C-0.14453125 43.3984375 -0.14453125 43.3984375 -1 47 C-5.34586428 46.53292113 -7.33326261 43.93340749 -10.25 40.875 C-11.22063782 39.87174118 -12.19330651 38.87044332 -13.16796875 37.87109375 C-13.64540527 37.38108887 -14.1228418 36.89108398 -14.61474609 36.38623047 C-17.1022126 33.89701037 -19.76221372 31.61799291 -22.44140625 29.33984375 C-23.67503179 28.27935864 -24.84968251 27.15031749 -26 26 C-26.08044867 23.18429638 -25.43819936 21.53065182 -23.6484375 19.36328125 C-19.97596403 15.63211528 -16.02708739 12.18885582 -12.05859375 8.77734375 C-10.62020035 7.5354671 -9.19678943 6.27611887 -7.78515625 5.00390625 C-7.07230469 4.36324219 -6.35945313 3.72257813 -5.625 3.0625 C-4.97789062 2.47597656 -4.33078125 1.88945313 -3.6640625 1.28515625 C-2 0 -2 0 0 0 Z " fill="#101010" transform="translate(231,856)"/>
<path d="M0 0 C1.134375 0.020625 2.26875 0.04125 3.4375 0.0625 C0.50538894 8.08722501 -3.26934585 15.6304256 -7.13134766 23.23242188 C-9.94880085 28.80388509 -12.73178681 34.39267549 -15.52133179 39.97814941 C-17.20069025 43.3401151 -18.88164635 46.70128167 -20.5625 50.0625 C-21.42875 51.795 -21.42875 51.795 -22.3125 53.5625 C-22.725 54.3875 -23.1375 55.2125 -23.5625 56.0625 C-26.2025 56.0625 -28.8425 56.0625 -31.5625 56.0625 C-30.29742686 52.83297236 -28.95058181 49.67498116 -27.4609375 46.54296875 C-27.05721924 45.69347656 -26.65350098 44.84398437 -26.23754883 43.96875 C-25.80853271 43.0715625 -25.3795166 42.174375 -24.9375 41.25 C-24.49237061 40.31800781 -24.04724121 39.38601563 -23.58862305 38.42578125 C-5.22566881 0.0916784 -5.22566881 0.0916784 0 0 Z " fill="#151616" transform="translate(1023.5625,852.9375)"/>
<path d="M0 0 C4.06168708 1.64424923 6.93543612 4.53024854 10.0625 7.5 C12.93844517 10.21130519 15.69769724 12.79846483 19 15 C18.71625414 19.34288797 17.08276911 21.29333772 13.890625 24.15429688 C13.34921875 24.61900391 12.8078125 25.08371094 12.25 25.5625 C11.7240625 26.03107422 11.198125 26.49964844 10.65625 26.98242188 C9.12029621 28.34158891 7.56197166 29.67090962 6 31 C4.66195313 32.18916016 4.66195313 32.18916016 3.296875 33.40234375 C2.53890625 33.92957031 1.7809375 34.45679688 1 35 C0.01 34.67 -0.98 34.34 -2 34 C-2.37109375 31.328125 -2.37109375 31.328125 -2 28 C-0.03081534 25.94468207 1.68102723 24.40969848 3.9375 22.75 C8.03798658 19.88099445 8.03798658 19.88099445 11 16 C10.43925781 15.74863281 9.87851563 15.49726562 9.30078125 15.23828125 C6.64218289 13.80742271 4.49353721 12.13589655 2.1875 10.1875 C1.37667969 9.52105469 0.56585937 8.85460937 -0.26953125 8.16796875 C-2 6 -2 6 -1.82421875 3.30078125 C-1 1 -1 1 0 0 Z " fill="#111111" transform="translate(1031,863)"/>
<path d="M0 0 C2.62506802 -0.02690844 5.24986173 -0.04679404 7.875 -0.0625 C8.62136719 -0.07087891 9.36773437 -0.07925781 10.13671875 -0.08789062 C15.7734375 -0.11328125 15.7734375 -0.11328125 18 1 C17.93940934 2.41782145 17.85045877 3.83444466 17.75 5.25 C17.68039062 6.43335938 17.68039062 6.43335938 17.609375 7.640625 C16.77426237 10.87400978 15.71668042 12.05951399 13 14 C9.546875 14.390625 9.546875 14.390625 5.75 14.25 C4.48671875 14.21390625 3.2234375 14.1778125 1.921875 14.140625 C0.47554688 14.07101562 0.47554688 14.07101562 -1 14 C-1.08367468 9.14686868 -0.8720551 4.79286977 0 0 Z " fill="#F7F7F7" transform="translate(466,866)"/>
<path d="M0 0 C0.33 0 0.66 0 1 0 C2.42002108 6.7831364 3.22731216 13.06697907 3 20 C-1.29 20 -5.58 20 -10 20 C-8.75444128 16.88610319 -7.61975118 14.13340945 -6.0546875 11.23046875 C-5.70019531 10.56982422 -5.34570312 9.90917969 -4.98046875 9.22851562 C-4.43326172 8.21821289 -4.43326172 8.21821289 -3.875 7.1875 C-3.50246094 6.49462891 -3.12992188 5.80175781 -2.74609375 5.08789062 C-1.83309623 3.39065164 -0.91687284 1.69514862 0 0 Z " fill="#E8E8E9" transform="translate(650,867)"/>
<path d="M0 0 C0.66 0.33 1.32 0.66 2 1 C-0.64 3.97 -3.28 6.94 -6 10 C6.54 10.33 19.08 10.66 32 11 C32 11.33 32 11.66 32 12 C17.48 12 2.96 12 -12 12 C-8 8 -4 4 0 0 Z " fill="#151615" transform="translate(739,462)"/>
<path d="M0 0 C2.97 0 5.94 0 9 0 C9.69685498 1.6210103 10.38222861 3.24696066 11.0625 4.875 C11.44535156 5.77992188 11.82820312 6.68484375 12.22265625 7.6171875 C13 10 13 10 12 12 C11.34 11.67 10.68 11.34 10 11 C9.3671875 8.93359375 9.3671875 8.93359375 8.875 6.4375 C8.70742188 5.61121094 8.53984375 4.78492188 8.3671875 3.93359375 C8.24601563 3.29550781 8.12484375 2.65742187 8 2 C5.36 2.33 2.72 2.66 0 3 C0 2.01 0 1.02 0 0 Z " fill="#212021" transform="translate(518,858)"/>
<path d="M0 0 C0.33 0 0.66 0 1 0 C1.83796731 4.65537393 2.0161692 8.37078475 1 13 C0.34 13 -0.32 13 -1 13 C-0.34 14.65 0.32 16.3 1 18 C0.34 18.33 -0.32 18.66 -1 19 C-1.66 19.99 -2.32 20.98 -3 22 C-2.69003741 19.27052356 -2.37712025 16.54144015 -2.0625 13.8125 C-1.97548828 13.04357422 -1.88847656 12.27464844 -1.79882812 11.48242188 C-1.35035579 7.61227172 -0.8470999 3.80813376 0 0 Z " fill="#414242" transform="translate(286,873)"/>
<path d="M0 0 C1.485 0.99 1.485 0.99 3 2 C3 2.66 3 3.32 3 4 C3.99 4 4.98 4 6 4 C6.66 3.34 7.32 2.68 8 2 C8 3.65 8 5.3 8 7 C5.36 7 2.72 7 0 7 C0 4.69 0 2.38 0 0 Z " fill="#232323" transform="translate(584,898)"/>
<path d="M0 0 C0.66 0.33 1.32 0.66 2 1 C-1.3 4.3 -4.6 7.6 -8 11 C-8.66 10.34 -9.32 9.68 -10 9 C-8.89902432 7.87187697 -7.79408444 6.74762189 -6.6875 5.625 C-6.07261719 4.99851562 -5.45773437 4.37203125 -4.82421875 3.7265625 C-3 2 -3 2 0 0 Z " fill="#171818" transform="translate(775,430)"/>
<path d="M0 0 C0.33 0 0.66 0 1 0 C1.12375 0.804375 1.2475 1.60875 1.375 2.4375 C1.58125 3.283125 1.7875 4.12875 2 5 C2.66 5.33 3.32 5.66 4 6 C3.39816251 8.02045442 2.72693904 10.02111039 2 12 C1.01 12.495 1.01 12.495 0 13 C0 8.71 0 4.42 0 0 Z " fill="#272727" transform="translate(816,413)"/>
<path d="M0 0 C0.33 1.32 0.66 2.64 1 4 C2.65 4 4.3 4 6 4 C6.33 3.01 6.66 2.02 7 1 C7 2.65 7 4.3 7 6 C4.36 6 1.72 6 -1 6 C-0.67 4.02 -0.34 2.04 0 0 Z " fill="#191819" transform="translate(922,899)"/>
<path d="M0 0 C0 1.65 0 3.3 0 5 C-3 5 -3 5 -5 4 C-1.125 0 -1.125 0 0 0 Z M-7 5 C-6.34 5.33 -5.68 5.66 -5 6 C-5.99 6.99 -6.98 7.98 -8 9 C-8.66 8.67 -9.32 8.34 -10 8 C-9.01 7.01 -8.02 6.02 -7 5 Z " fill="#202020" transform="translate(696,503)"/>
<path d="M0 0 C0.66 0.33 1.32 0.66 2 1 C0.02 3.31 -1.96 5.62 -4 8 C-4.66 7.34 -5.32 6.68 -6 6 C-4.02 4.02 -2.04 2.04 0 0 Z " fill="#1B1B1C" transform="translate(739,462)"/>
<path d="M0 0 C0.99 0.33 1.98 0.66 3 1 C-0.465 3.97 -0.465 3.97 -4 7 C-4.66 6.67 -5.32 6.34 -6 6 C-4.02 4.02 -2.04 2.04 0 0 Z " fill="#212122" transform="translate(717,863)"/>
<path d="M0 0 C0.66 0 1.32 0 2 0 C2.38218767 1.65614657 2.71395102 3.32457024 3 5 C2 6 2 6 -1.0625 6.0625 C-2.5165625 6.0315625 -2.5165625 6.0315625 -4 6 C-2.68 5.67 -1.36 5.34 0 5 C0 3.35 0 1.7 0 0 Z " fill="#222223" transform="translate(484,897)"/>
<path d="M0 0 C1.96301592 3.50538557 2.95902388 7.13351728 4 11 C3.01 10.67 2.02 10.34 1 10 C-0.1577506 6.52674819 -0.06866652 3.63932552 0 0 Z " fill="#333233" transform="translate(527,859)"/>
<path d="M0 0 C0.33 0 0.66 0 1 0 C1 1.98 1 3.96 1 6 C1.66 6 2.32 6 3 6 C2.34 7.32 1.68 8.64 1 10 C0.34 10 -0.32 10 -1 10 C-0.67 6.7 -0.34 3.4 0 0 Z " fill="#444344" transform="translate(526,623)"/>
<path d="M0 0 C-1.32 0.33 -2.64 0.66 -4 1 C-4 1.66 -4 2.32 -4 3 C-6.31 3.33 -8.62 3.66 -11 4 C-3.77464789 -1.88732394 -3.77464789 -1.88732394 0 0 Z " fill="#3C3C3D" transform="translate(872,309)"/>
<path d="M0 0 C0.66 0.33 1.32 0.66 2 1 C0.35 2.98 -1.3 4.96 -3 7 C-3.66 6.34 -4.32 5.68 -5 5 C-3.35 3.35 -1.7 1.7 0 0 Z " fill="#262626" transform="translate(651,543)"/>
<path d="M0 0 C0 0.66 0 1.32 0 2 C-4.47058824 6 -4.47058824 6 -7 6 C-5.52522876 2.59668175 -4.14385429 0 0 0 Z " fill="#171718" transform="translate(448,389)"/>
</svg>
